<?xml version="1.0" encoding="utf-8"?>
<!-- Generator: Adobe Illustrator 19.0.1, SVG Export Plug-In . SVG Version: 6.00 Build 0)  -->
<svg version="1.1" id="Camada_1" xmlns="http://www.w3.org/2000/svg" xmlns:xlink="http://www.w3.org/1999/xlink" x="0px" y="0px"
	 viewBox="0 0 499 338" style="enable-background:new 0 0 499 338;" xml:space="preserve">
<style type="text/css">
	.st0{fill-rule:evenodd;clip-rule:evenodd;fill:#2E3192;}
	.st1{fill-rule:evenodd;clip-rule:evenodd;fill:#ED1C24;}
</style>
<path class="st0" d="M206.5,49.3c91.5,0,165.8,39,165.8,87.2c0,48.1-74.2,87.2-165.8,87.2c-25.1,0-48.9-2.9-70.2-8.2l12.2,47.6
	l0.7,4.6c0.3-0.9,1.6,2.1,3.1,4.7h-21.1c0.4-1.3,0.6-2.1,0.7-2.6c0.1-0.5,0.2-1.1,0.2-1.8c0-1.8-0.2-3.5-0.6-5.1l-2.4-8.6h-18.5
	l-2.8,9.3c-0.4,1.3-0.6,2.6-0.6,4c0,1.1,0,1.9,0.1,2.4c0.1,0.5,0.4,1.3,0.8,2.4H96.1c0.6-1.3,1.2-2.4,1.6-3.3
	c0.5-0.9,0.9-1.9,1.2-2.8c0.3-0.9,0.7-1.8,1-2.8c0.3-0.9,0.7-2.1,1.1-3.3l15.1-50.7c-1.4-0.5-2.7-0.9-4-1.4c0.3-0.8,0.5-1.7,0.8-2.5
	c0.8,0.3,1.6,0.6,2.5,0.9l-0.8-1.6h10.7c-1.8-0.9-3.5-1.9-5.2-2.9c-1.7-1-3.3-2-5-3.1c0.3-0.9,0.6-1.8,0.9-2.6
	c2.1,1.4,4.2,2.6,6.3,3.8c3,1.7,6,3.3,9.1,4.8h1.9c8.2-1.6,16.5-3,24.7-4.2c-3.1-3.5-6-7.3-8.5-11.3c-2.3-3.6-4.3-7.4-6.1-11.3
	l-3.9,1.3l-4.7,4.4l-4.1,8.9l-4,0.5l1.8-6.2l0.9-6.2l0.9-4.6l0.8-2.6l-0.7-3.4l1.5-6c-1.6,0.4-3.3,0.8-4.9,1.2
	c0.4-1.1,0.8-2.2,1.3-3.3c1.1-0.3,2.3-0.6,3.4-0.8l-0.7-6.2c2.2-5.5,4.4-10.9,6.6-16.2l0,0l0.5-1.1h0c0.4-1,0.8-1.9,1.2-2.9h0.1
	l6.1-14l2.8,0.6l2.8-0.7l2.6,0.9l1.9,1.3l0.6,1.2l0.8,0.9l0.2,2.7l0.2,1.7l0.9,1.8l7.1,0.7l5.5,2.2l0.2,0.8l33.4,0v-15.6
	c-18.6-0.1-37.3-1.7-56-5c0.4-0.9,0.8-1.8,1.3-2.7c18.3,3.1,36.5,4.8,54.7,4.8V75.9c-11.7-0.2-23.4-0.9-35.1-2.2
	c0.5-0.9,1-1.8,1.6-2.7c11.2,1.2,22.4,1.9,33.6,2.1V52.2c-5.5,0.2-11,1.2-16.2,2.9c-3.8,1.3-7.4,2.9-10.9,4.9c1-1.6,1.9-3.2,2.9-4.7
	c1.4-0.7,2.8-1.3,4.3-1.8c-1.1,0.1-2.3,0.3-3.4,0.4c0.8-1.2,1.5-2.4,2.3-3.7C191.1,49.6,198.7,49.3,206.5,49.3L206.5,49.3z
	 M134.8,209.5l0.8,3c6,1.5,12.1,2.8,18.2,3.8C147.3,214.5,141,212.2,134.8,209.5L134.8,209.5z M120.3,220.4l-6.5,22.7h12.5
	L120.3,220.4L120.3,220.4z M190.9,237.8h-8.4c0.3,0.4,0.5,0.8,0.7,1.1c0.2,0.3,0.3,0.7,0.4,1.2c0.1,0.4,0.1,1,0.2,1.6
	c0,0.6,0,1.4,0,2.4l0,19.2c0,0.8,0,1.4-0.1,1.8c-0.1,0.5-0.2,0.8-0.5,1.1c-0.3,0.2-0.7,0.4-1.2,0.5c-0.5,0.1-1.3,0.1-2.2,0.1H169
	c-1.2,0-2-0.3-2.5-0.8c-0.5-0.5-0.8-1.3-0.8-2.5l0-19.7c0-1.7,0.1-2.9,0.3-3.7c0.2-0.8,0.5-1.6,0.8-2.2h-15.4
	c0.3,0.7,0.6,1.4,0.8,2.2c0.2,0.8,0.3,2,0.3,3.7l0,18c0,3.6,0.7,6.3,2.2,8c1.5,1.8,3.9,2.6,7.3,2.6h17.7c1.9,0,3.4-0.2,4.7-0.6
	c1.2-0.4,2.2-1,3-1.8c0.7-0.8,1.3-1.9,1.6-3.3c0.3-1.3,0.5-3,0.5-5l0-17.7c0-1,0-1.8,0-2.4c0-0.6,0.1-1.1,0.2-1.6
	c0.1-0.4,0.2-0.8,0.4-1.2C190.4,238.6,190.6,238.2,190.9,237.8L190.9,237.8z M226.7,237.8L226.7,237.8h-27.8h-5.3l-1.1,7.1
	c0.7-0.5,1.4-0.8,2.1-1.1c0.7-0.2,1.6-0.4,2.9-0.4h6l0,23c0,1.7-0.1,2.9-0.3,3.7c-0.2,0.8-0.5,1.6-0.8,2.2h15.4
	c-0.3-0.7-0.6-1.4-0.8-2.2c-0.2-0.8-0.3-2-0.3-3.7l0-23h6.1c1.2,0,2.2,0.1,2.8,0.4c0.7,0.2,1.4,0.6,2.1,1.1L226.7,237.8L226.7,237.8
	z M268,248.1c0-3.8-0.7-6.4-2.2-8c-1.5-1.5-3.7-2.3-6.5-2.3h-20c-2.8,0-5,0.8-6.5,2.3c-1.5,1.5-2.3,4.2-2.3,8l0,14.2
	c0,3.7,0.8,6.4,2.3,7.9s3.7,2.3,6.5,2.3h20c2.8,0,5-0.8,6.5-2.3c1.5-1.5,2.3-4.1,2.3-7.9L268,248.1L268,248.1z M254.7,245.9
	c0-0.9-0.2-1.5-0.7-1.8c-0.4-0.3-1.1-0.5-2-0.5h-5.8c-0.9,0-1.5,0.2-2,0.5c-0.4,0.3-0.6,0.9-0.6,1.8l0,18.7c0,0.8,0.2,1.4,0.6,1.7
	c0.4,0.3,1.1,0.5,1.9,0.5h5.8c0.9,0,1.5-0.2,2-0.5c0.5-0.3,0.7-0.9,0.7-1.7L254.7,245.9L254.7,245.9z M320.5,237.8h-17.7l-7.2,19.7
	h-0.1l-6.6-19.7h-18.2c0.3,0.4,0.5,0.8,0.7,1.1c0.2,0.3,0.3,0.7,0.4,1.2c0.1,0.4,0.1,1,0.2,1.6c0,0.6,0,1.4,0,2.4l0,22.2
	c0,1,0,1.8-0.1,2.4c-0.1,0.6-0.1,1.1-0.2,1.6c-0.1,0.4-0.2,0.8-0.4,1.2c-0.2,0.3-0.4,0.7-0.7,1.1h8.4c-0.3-0.4-0.5-0.8-0.7-1.1
	c-0.2-0.3-0.3-0.7-0.4-1.2c-0.1-0.4-0.1-1-0.2-1.6c0-0.6,0-1.4,0-2.4l0-21.1h0.1l9.3,27.3h9.3l9.7-27.3h0.1l-0.1,21.3
	c0,1.7-0.1,2.9-0.3,3.7c-0.2,0.8-0.5,1.6-0.8,2.2h15.5c-0.3-0.7-0.6-1.4-0.8-2.2c-0.2-0.8-0.3-2-0.3-3.7l0-22.8
	c0-1.7,0.1-2.9,0.3-3.7C319.8,239.2,320.1,238.5,320.5,237.8L320.5,237.8z M352.3,237.8h-15.8l1.5,1.9l-12.7,26.4
	c-0.3,0.6-0.6,1.2-0.9,1.7c-0.3,0.5-0.5,1-0.8,1.4c-0.3,0.5-0.6,0.9-1,1.4c-0.4,0.5-0.8,1.1-1.3,1.7h9.8c-0.3-0.6-0.5-1-0.6-1.2
	c-0.1-0.3-0.1-0.7-0.1-1.2c0-0.7,0.1-1.4,0.5-2l2.3-4.7h15.3l2,4.4c0.4,0.8,0.5,1.7,0.5,2.6c0,0.4-0.1,0.7-0.2,0.9
	c-0.1,0.3-0.3,0.7-0.6,1.3h17.4c-1.2-1.3-2.2-2.9-3.1-4.7l0-0.1L353.2,240L352.3,237.8L352.3,237.8z M341.3,245.8l-5.4,11.6h10.3
	L341.3,245.8L341.3,245.8z M394.9,237.8L394.9,237.8h-27.8h-5.3l-1.1,7.1c0.7-0.5,1.4-0.8,2.1-1.1c0.7-0.2,1.6-0.4,2.9-0.4h6l0,23
	c0,1.7-0.1,2.9-0.3,3.7c-0.2,0.8-0.5,1.6-0.8,2.2h15.4c-0.3-0.7-0.6-1.4-0.8-2.2c-0.2-0.8-0.3-2-0.3-3.7l0-23h6.1
	c1.2,0,2.2,0.1,2.8,0.4c0.7,0.2,1.4,0.6,2.1,1.1L394.9,237.8L394.9,237.8z M412.8,237.8c-0.3,0.7-0.6,1.4-0.8,2.2
	c-0.2,0.8-0.3,2-0.3,3.7l0,22.8c0,1.7,0.1,2.9,0.3,3.7c0.2,0.8,0.4,1.6,0.8,2.2h-15.4c0.3-0.7,0.6-1.4,0.8-2.2
	c0.2-0.8,0.3-2,0.3-3.7l0-22.8c0-1.7-0.1-2.9-0.3-3.7c-0.2-0.8-0.5-1.6-0.8-2.2H412.8L412.8,237.8z M453,248.1l0,14.2
	c0,3.7-0.7,6.4-2.3,7.9c-1.5,1.5-3.7,2.3-6.5,2.3h-20c-2.8,0-5-0.8-6.5-2.3c-1.5-1.5-2.3-4.1-2.3-7.9l0-14.2c0-3.8,0.8-6.4,2.3-8
	c1.5-1.5,3.7-2.3,6.5-2.3h20c2.8,0,5,0.8,6.5,2.3C452.2,241.6,453,244.3,453,248.1L453,248.1z M439.7,245.9c0-0.9-0.2-1.5-0.7-1.8
	c-0.4-0.3-1.1-0.5-2-0.5h-5.8c-0.9,0-1.5,0.2-2,0.5c-0.4,0.3-0.6,0.9-0.6,1.8l0,18.7c0,0.8,0.2,1.4,0.6,1.7c0.4,0.3,1.1,0.5,1.9,0.5
	h5.8c0.9,0,1.5-0.2,2-0.5c0.5-0.3,0.7-0.9,0.7-1.7L439.7,245.9L439.7,245.9z M495.5,237.8c-0.3,0.4-0.5,0.8-0.7,1.1
	c-0.2,0.3-0.3,0.7-0.4,1.2c-0.1,0.4-0.2,1-0.2,1.6c0,0.6,0,1.4,0,2.4l0,0.8l-0.1,27.6l0,0.1h-17.3l-0.5-1l-13.7-27.6l-0.1-0.1h-0.1
	l0,22.5c0,1,0,1.8,0,2.4c0,0.6,0.1,1.1,0.2,1.6c0.1,0.4,0.2,0.8,0.4,1.2c0.2,0.3,0.4,0.7,0.7,1.1h-8.4c0.3-0.4,0.5-0.8,0.7-1.1
	c0.2-0.3,0.3-0.7,0.4-1.2c0.1-0.4,0.2-1,0.2-1.6c0.1-0.6,0.1-1.4,0.1-2.4l0-22.2c0-1,0-1.8,0-2.4c0-0.6-0.1-1.1-0.2-1.6
	c-0.1-0.4-0.2-0.8-0.4-1.2c-0.2-0.3-0.4-0.7-0.7-1.1h18.6l0.3,0.6l13.8,27.6l0.1,0.1h0.2l0-22c0-1,0-1.8,0-2.4
	c0-0.6-0.1-1.1-0.2-1.6c-0.1-0.4-0.2-0.8-0.4-1.2c-0.2-0.3-0.4-0.7-0.7-1.1H495.5L495.5,237.8z M81.5,193.7
	c-25.4-15.3-40.7-35.3-40.7-57.2c0-8.8,2.5-17.3,7.1-25.3l3.2-0.2c-3.6,5.9-6,12.3-7,19.2c-0.2,1.6-0.4,3.2-0.4,4.9l31.8,0
	c0.1-3.8,0.5-7.5,1.4-11.2c1.1-5.1,2.9-10,5.2-14.6l3.2-0.2c-2.6,5-4.5,10.3-5.7,15.9c-0.7,3.3-1.1,6.7-1.2,10l7,0
	c-0.1,1-0.3,1.9-0.4,2.9l-6.6,0c0.1,3.4,0.5,6.8,1.2,10.1c0.7,3.6,1.8,7.1,3.2,10.5c-0.2,1.9-0.3,3.9-0.4,5.8
	c-2.4-4.8-4.3-9.8-5.4-15.1c-0.8-3.7-1.3-7.4-1.4-11.2l-31.8,0c0.1,1.6,0.2,3.3,0.4,4.9c2.3,16.1,12.7,29.3,25.4,39.5
	c4-1.7,8.1-3.4,12.1-5c0,1-0.1,2.1-0.1,3.1c-3.1,1.3-6.3,2.6-9.4,3.9c3,2.3,6.2,4.4,9.4,6.4C81.4,191.7,81.5,192.7,81.5,193.7
	L81.5,193.7z M323.7,97.8c5.8,7.7,10.2,16.5,12.3,26.1c0.8,3.6,1.2,7.3,1.3,11l31.8,0c-0.1-1.5-0.2-3.1-0.4-4.6
	c-2.3-16.3-12.9-29.6-25.9-39.8C336.4,93,330,95.5,323.7,97.8L323.7,97.8z M275.1,111.8c1.8,7.5,2.8,15.3,2.9,23.1l56.4,0
	c-0.1-3.3-0.5-6.6-1.1-9.8c-2-9.7-6.4-18.5-12.3-26.3C305.6,104.2,290.3,108.5,275.1,111.8L275.1,111.8z M321.4,173.7
	c5.7-7.6,9.9-16.2,11.9-25.7c0.7-3.4,1.1-6.8,1.2-10.3l-56.4,0c-0.1,7.5-1,15-2.7,22.4C290.7,163.5,306,168,321.4,173.7L321.4,173.7
	z M343.2,182.3c12.8-10.2,23.2-23.4,25.5-39.5c0.2-1.7,0.4-3.4,0.4-5.1l-31.8,0c-0.1,3.8-0.5,7.7-1.4,11.4
	c-2.1,9.4-6.3,17.9-11.9,25.5C330.4,177,336.8,179.6,343.2,182.3L343.2,182.3z M284.9,66.8c2.6,1.3,5.2,2.7,7.8,4.2
	c10.8,6.3,21.1,14.5,29.1,24.4c6.1-2.2,12.2-4.5,18.4-7.1c-6.3-4.7-13-8.7-19.5-12c-8.9-4.6-18.5-8.4-28.3-11.6
	C289.9,65.5,287.4,66.2,284.9,66.8L284.9,66.8z M255.2,72.7c3,3.4,5.7,7,8.1,10.9c5,7.9,8.6,16.5,11.1,25.4
	c14.8-3.2,29.7-7.4,44.7-12.6c-7.8-9.5-18-17.4-28.5-23.5c-3.2-1.8-6.4-3.5-9.8-5.1C272.3,69.9,263.8,71.5,255.2,72.7L255.2,72.7z
	 M276.5,65.9c-15.2-6.6-31.8-10.6-48.4-12.5c9.4,3.7,17.8,9.5,24.8,16.7C260.8,69.1,268.6,67.6,276.5,65.9L276.5,65.9z M287.3,63.2
	c-9.3-2.7-18.8-4.9-28.4-6.6c7.5,2.2,14.9,4.9,22,8.2C283,64.3,285.2,63.8,287.3,63.2L287.3,63.2z M280.9,208.1
	c-7.1,3.3-14.5,6-22,8.2c9.6-1.7,19.1-3.9,28.4-6.6C285.2,209.2,283,208.6,280.9,208.1L280.9,208.1z M252.9,202.8
	c-7,7.2-15.3,13.1-24.8,16.8c16.6-1.9,33.1-5.9,48.4-12.5C268.6,205.3,260.8,203.9,252.9,202.8L252.9,202.8z M136.4,207.2
	c15.2,6.5,31.7,10.6,48.2,12.4c-9.3-3.6-17.4-9.3-24.3-16.3C152.3,204.3,144.3,205.6,136.4,207.2L136.4,207.2z M280.8,205.2
	c3.3-1.6,6.6-3.3,9.7-5.1c10.8-6.2,21.1-14.2,29-24c-15-5.4-30-9.8-44.9-13.1c-2.4,9.3-6.2,18.3-11.4,26.5
	c-2.4,3.8-5.1,7.5-8.1,10.8C263.8,201.5,272.3,203.1,280.8,205.2L280.8,205.2z M292.4,208.2c9.9-3.2,19.4-7,28.3-11.6
	c6.6-3.4,13.5-7.5,19.9-12.3c-6.1-2.6-12.3-5-18.4-7.3c-8,10.1-18.5,18.5-29.5,24.9c-2.5,1.5-5.1,2.9-7.8,4.2
	C287.4,206.8,289.9,207.5,292.4,208.2L292.4,208.2z M207.4,73.1c14,0.1,28-0.7,41.9-2.5c-7-6.9-15.4-12.3-24.9-15.5
	c-5.5-1.8-11.2-2.8-17-2.9V73.1L207.4,73.1z M207.4,116.4c21.4-0.1,42.7-2.4,64.2-6.8c-2.4-8.6-5.9-17-10.7-24.6
	c-2.7-4.2-5.7-8.2-9.1-11.8c-14.8,2-29.6,2.8-44.4,2.8V116.4L207.4,116.4z M207.4,134.9l67.8-0.1c-0.1-7.6-1.1-15.1-2.8-22.5
	c-21.7,4.5-43.3,6.8-64.9,6.9V134.9L207.4,134.9z M207.4,152.4c21.7,0.1,43.4,2.5,65.2,7.1c1.6-7.1,2.5-14.5,2.6-21.8l-67.8,0.1
	V152.4L207.4,152.4z M207.4,197c14.9-0.1,29.7,0.8,44.5,2.8c3.4-3.6,6.4-7.6,9-11.8c5-7.9,8.6-16.6,11-25.7c-21.6-4.6-43-7-64.5-7
	V197L207.4,197z M207.4,220.8c5.8-0.1,11.5-1.1,17-2.9c9.5-3.1,17.9-8.6,24.9-15.5c-13.9-1.8-27.9-2.5-42-2.5V220.8L207.4,220.8z
	 M204.5,199.9c-13.6,0.2-27.1,1.2-40.6,2.9c6.9,6.7,15.2,12,24.5,15.1c5.2,1.7,10.7,2.7,16.2,2.9V199.9L204.5,199.9z M165.8,155
	c12.9-1.7,25.8-2.6,38.7-2.6v-14.6l-32.7,0l0.1,0.4l-1.8,3.9l-0.4,2.8l-2,4.2l-1.4,5.1L165.8,155L165.8,155z M145.9,176.9
	c1.7,3.8,3.7,7.5,5.9,11.1c2.8,4.4,5.9,8.5,9.5,12.3c14.4-1.9,28.8-3,43.2-3.2v-41.8c-14.1,0.1-28.1,1.1-42.2,3.1l-5.3,2.8l-2.9,4.4
	l-0.7,3.6l-4.6,4.2L145.9,176.9z"/>
<path class="st0" d="M173.4,333.4h-32.6c-5.3,0-7.9-2.3-7.9-7V320c0-1.5,0.5-2.7,1.6-3.6c1.1-0.8,2.3-1.3,3.8-1.3
	c1.5,0,2.7,0.4,3.7,1.2c1,0.8,1.5,2,1.5,3.6c0,2.1,0.3,3.4,0.9,3.9c0.6,0.5,2.1,0.8,4.4,0.8h5.7c2.3,0,3.8-0.3,4.5-0.8
	c0.6-0.5,0.9-1.8,0.9-3.9v-4.5c0-2.4-0.5-3.8-1.5-4.1c-1-0.4-2.3-0.6-4-0.6h-13.9c-5.2,0-7.8-2.3-7.8-6.9v-16.7c0-2.3,0.7-4,2.2-5.2
	c1.5-1.2,3.4-1.8,5.9-1.8h32.4c2.3,0,4.3,0.6,5.8,1.8c1.5,1.2,2.3,3,2.3,5.2v6.7c0,1.6-0.5,2.8-1.5,3.6c-1,0.8-2.3,1.2-3.9,1.2
	c-1.5,0-2.7-0.4-3.8-1.3c-1.1-0.8-1.6-2-1.6-3.6c0-2.4-0.3-3.8-0.9-4.3c-0.6-0.5-2.1-0.8-4.4-0.8h-16.4c-2.2,0-3.7,0.3-4.3,0.8
	c-0.6,0.5-1,1.8-1,3.9v3.8c0,2.1,0.3,3.4,0.9,3.9c0.6,0.5,2.1,0.8,4.4,0.8h24.5c5.4,0,8.1,2.3,8.1,7v17.2
	C181.5,331,178.8,333.4,173.4,333.4L173.4,333.4z M221.1,324.5v-17.5c0-1.4-0.2-2.3-0.6-2.6c-0.4-0.3-1.4-0.5-2.9-0.5H198
	c-1.5,0-2.4,0.2-2.9,0.5c-0.4,0.4-0.6,1.2-0.6,2.6v17.5c0,1.4,0.2,2.3,0.6,2.6c0.4,0.3,1.4,0.5,2.9,0.5h19.5c1.5,0,2.4-0.2,2.9-0.5
	C220.9,326.7,221.1,325.9,221.1,324.5L221.1,324.5z M228.2,302.8v25.9c0,3.1-1.7,4.6-5.2,4.6h-30.1c-3.6,0-5.3-1.5-5.3-4.6v-25.9
	c0-1.5,0.5-2.7,1.5-3.5c1-0.8,2.3-1.2,3.9-1.2h30.1C226.4,298.2,228.2,299.8,228.2,302.8L228.2,302.8z M244.6,312.5
	c0.9,0.8,1.8,1.6,2.6,2.4c0.8,0.8,1.2,1.9,1.2,3.4v10.5c0,3.1-1.8,4.6-5.3,4.6h-3.6c-3.5,0-5.2-1.5-5.2-4.6v-46.3
	c0-1.1,0.3-1.9,1-2.5c0.7-0.6,1.5-0.9,2.6-0.9c1,0,1.9,0.3,2.5,0.8c0.6,0.5,1,1.4,1,2.5V305c0,2.4,0.1,3.8,0.3,4.3
	C241.8,309.7,242.8,310.8,244.6,312.5L244.6,312.5z M268.8,324.5c0,1.4,0.2,2.3,0.6,2.6c0.4,0.3,1.4,0.5,2.9,0.5h3.8
	c1.6,0,2.5-0.2,3-0.5c0.4-0.4,0.6-1.2,0.6-2.6v-22.8c0-1.1,0.4-2,1.1-2.6c0.7-0.6,1.6-0.9,2.5-0.9c1,0,1.8,0.3,2.5,0.9
	c0.7,0.6,1,1.4,1,2.5v27.2c0,3.1-1.8,4.6-5.3,4.6h-21.5c-3.6,0-5.3-1.5-5.3-4.6v-27.2c0-1.1,0.3-1.9,1-2.5c0.7-0.6,1.5-0.9,2.6-0.9
	c1,0,1.9,0.3,2.5,0.8c0.6,0.5,1,1.4,1,2.5v5.8c0,1.4,0.3,2.4,0.8,3l2.5,2.2c1.8,1.6,2.9,2.6,3.3,3.1c0.4,0.5,0.5,1.4,0.5,2.7V324.5
	L268.8,324.5z M314.5,310.4h-3.7c-1.6,0-2.5,0.2-2.9,0.5c-0.4,0.3-0.6,1.2-0.6,2.6v7c0,0.8,0,1.4,0,2s0,0.9,0,1.2
	c0,1.8,0.2,2.9,0.6,3.3c0.4,0.4,1.6,0.6,3.5,0.6h4.3c1.4,0,2.4,0.3,3.1,0.8c0.7,0.6,1.1,1.2,1.1,2c0,0.8-0.4,1.5-1.1,2
	c-0.7,0.6-1.7,0.8-3.1,0.8h-10.2c-1.9,0-3.3-0.3-4.1-1c-0.8-0.6-1.2-1.8-1.2-3.6v-21.8c0-1.4-0.2-2.3-0.6-2.6
	c-0.4-0.3-1.4-0.5-2.9-0.5h-0.6c-1,0-1.7-0.3-2.2-0.8c-0.5-0.6-0.8-1.2-0.8-2c0-0.7,0.3-1.4,0.8-2c0.6-0.6,1.3-0.9,2.3-0.9h0.5
	c1.5,0,2.4-0.2,2.9-0.5c0.4-0.4,0.6-1.2,0.6-2.6c0-1,0.3-1.8,1-2.3c0.7-0.5,1.5-0.8,2.4-0.8c1,0,1.8,0.3,2.6,0.9
	c0.7,0.6,1.1,1.4,1.1,2.6c0,1.1,0.2,1.9,0.6,2.2c0.4,0.4,1.4,0.5,3,0.5h3.5c1.7,0,3,0.4,4,1.3c1,0.8,1.5,2,1.5,3.4v2.9
	c0,1.3-0.5,2.5-1.4,3.3C317.5,309.9,316.2,310.4,314.5,310.4L314.5,310.4z M336.1,312.5c1.8,1.6,2.9,2.6,3.3,3.1
	c0.4,0.5,0.5,1.4,0.5,2.7v10.5c0,3.1-1.8,4.6-5.3,4.6H331c-3.5,0-5.2-1.5-5.2-4.6v-27.2c0-1.1,0.3-1.9,1-2.5
	c0.7-0.6,1.5-0.9,2.6-0.9c1,0,1.9,0.3,2.5,0.8c0.6,0.5,1,1.4,1,2.5v3.5c0,2.5,0.1,3.9,0.3,4.4C333.3,309.9,334.3,310.9,336.1,312.5
	L336.1,312.5z M329.3,285.6c1,0,1.8,0.3,2.5,1c0.7,0.6,1,1.4,1,2.2c0,0.8-0.3,1.6-1,2.2c-0.6,0.6-1.5,0.9-2.5,0.9
	c-1,0-1.8-0.3-2.5-0.9c-0.7-0.6-1.1-1.3-1.1-2.2c0-0.9,0.3-1.6,1-2.3C327.3,285.9,328.2,285.6,329.3,285.6L329.3,285.6z
	 M379.7,324.5v-17.5c0-1.4-0.2-2.3-0.6-2.6c-0.4-0.3-1.4-0.5-2.9-0.5h-19.5c-1.5,0-2.4,0.2-2.9,0.5c-0.4,0.4-0.6,1.2-0.6,2.6v17.5
	c0,1.4,0.2,2.3,0.6,2.6c0.4,0.3,1.4,0.5,2.9,0.5h19.5c1.5,0,2.4-0.2,2.9-0.5C379.5,326.7,379.7,325.9,379.7,324.5L379.7,324.5z
	 M386.8,302.8v25.9c0,3.1-1.7,4.6-5.2,4.6h-30.1c-3.6,0-5.3-1.5-5.3-4.6v-25.9c0-1.5,0.5-2.7,1.5-3.5c1-0.8,2.3-1.2,3.9-1.2h30.1
	C385,298.2,386.8,299.8,386.8,302.8L386.8,302.8z M401.7,333.4h-3.6c-3.5,0-5.2-1.5-5.2-4.6v-25.9c0-1.5,0.5-2.7,1.5-3.5
	c1-0.8,2.3-1.2,3.9-1.2h22.1c3.5,0,5.2,1.5,5.2,4.6V330c0,1.1-0.3,1.9-1,2.5c-0.7,0.6-1.5,0.9-2.5,0.9c-2.4,0-3.6-1.2-3.6-3.5v-22.8
	c0-1.4-0.2-2.3-0.6-2.6c-0.4-0.3-1.4-0.5-2.9-0.5h-11.6c-1.5,0-2.4,0.2-2.9,0.5c-0.4,0.4-0.6,1.2-0.6,2.6c0,1.3,0.1,2.2,0.3,2.5
	c0.2,0.3,1.2,1.3,3.1,2.9c1.8,1.6,2.9,2.6,3.3,3c0.3,0.4,0.5,1.2,0.5,2.4v10.8C407,331.8,405.2,333.4,401.7,333.4L401.7,333.4z
	 M458.6,333.4H437c-3.5,0-5.2-1.5-5.2-4.6v-4.2c0-1,0.4-1.8,1.1-2.4c0.7-0.6,1.6-0.8,2.5-0.8c1,0,1.8,0.3,2.5,0.8
	c0.7,0.5,1,1.3,1,2.4c0,1.4,0.2,2.3,0.6,2.6c0.4,0.3,1.4,0.5,2.9,0.5h3.8c1.6,0,2.5-0.2,3-0.5c0.4-0.4,0.6-1.2,0.6-2.6v-3
	c0-1.6-0.3-2.5-1-2.7c-0.6-0.3-1.5-0.4-2.6-0.4h-9.2c-3.4,0-5.1-1.5-5.1-4.6v-11c0-1.5,0.5-2.7,1.5-3.5c1-0.8,2.3-1.2,3.9-1.2h21.5
	c1.6,0,2.8,0.4,3.8,1.2c1,0.8,1.5,2,1.5,3.4v4.5c0,1.1-0.3,1.9-1,2.4c-0.7,0.5-1.5,0.8-2.6,0.8c-1,0-1.8-0.3-2.5-0.8
	c-0.7-0.6-1.1-1.3-1.1-2.4c0-1.6-0.2-2.5-0.6-2.9c-0.4-0.3-1.4-0.5-2.9-0.5h-10.9c-1.5,0-2.4,0.2-2.9,0.5c-0.4,0.4-0.6,1.2-0.6,2.6
	v2.5c0,1.4,0.2,2.3,0.6,2.6c0.4,0.3,1.4,0.5,2.9,0.5h16.2c3.6,0,5.3,1.5,5.3,4.6v11.4C463.9,331.8,462.1,333.4,458.6,333.4z"/>
<path class="st1" d="M2.6,113.6c64.2-54.7,135-93.6,215.2-110c-60,70.5-97.4,165.8-125.5,271.4c-12.8-50.1-15.1-105-2.4-166.2
	L2.6,113.6z"/>
</svg>
